<?xml version="1.0" ?>
<!-- Uploaded to: SVG Repo, www.svgrepo.com, Generator: SVG Repo Mixer Tools -->
<svg fill="#000000" width="800px" height="800px" viewBox="0 0 64 64" xmlns="http://www.w3.org/2000/svg">
<g id="in-love">
<path d="M3.7524,17.8184l.7669-.767.7668.767A1,1,0,1,0,6.7,16.4043l-.767-.7671L6.7,14.87a1,1,0,0,0-1.4141-1.414l-.7668.7669-.7669-.7669a1,1,0,1,0-1.414,1.414l.7669.7671-.7669.7671a1,1,0,1,0,1.414,1.4141Z"/>
<path d="M55,53a3,3,0,1,0,3,3A3.0033,3.0033,0,0,0,55,53Zm0,4a1,1,0,1,1,1-1A1.0013,1.0013,0,0,1,55,57Z"/>
<circle cx="12" cy="53" r="1"/>
<path d="M26.9941,21.8911a1,1,0,0,0-.6777-.84l-6-2a1,1,0,1,0-.6328,1.8974l3.9375,1.3125-3.1357,1.8814a1,1,0,1,0,1.0292,1.7148l5-3A.9993.9993,0,0,0,26.9941,21.8911Z"/>
<path d="M41.6836,19.0513l-6,2a1,1,0,0,0-.1982,1.8061l5,3a1,1,0,0,0,1.0292-1.7148l-3.1357-1.8814,3.9375-1.3125a1,1,0,1,0-.6328-1.8974Z"/>
<path d="M61.5537,38.1953a6.58,6.58,0,0,0-4.1772-1.915,6.5806,6.5806,0,0,0-1.9151-4.1773,6.7269,6.7269,0,0,0-.5038-.4541A23.9978,23.9978,0,0,0,7,33a24.21,24.21,0,0,0,.2678,3.477,3.5022,3.5022,0,0,0-1.6662,2.3648A3.6,3.6,0,0,0,3.7588,44.918,6.9788,6.9788,0,0,0,8.563,46.4946a8.4606,8.4606,0,0,0,2.3819-.3275,23.9778,23.9778,0,0,0,37.2086,3.6074,22.5927,22.5927,0,0,0,4.5687.46c3.3847,0,6.8784-.752,8.8315-2.7051a6.6,6.6,0,0,0,0-9.334ZM31,55A21.8822,21.8822,0,0,1,12.5046,44.903c.7894-1.9671.9909-6.0872-.8264-7.9045A3.58,3.58,0,0,0,9.2158,35.954,21.8863,21.8863,0,0,1,31,11,21.9349,21.9349,0,0,1,52.8366,30.4955a6.59,6.59,0,0,0-6.7087,1.6075c-3.6621,3.6616-3.7158,12.7447-1.6738,16.1475a1.0015,1.0015,0,0,0,.3428.3428,7.67,7.67,0,0,0,1.1535.54A21.7605,21.7605,0,0,1,31,55Z"/>
<path d="M37.3193,30H24.707a2.7446,2.7446,0,0,0-2.1758,4.356C24.2109,36.6035,27.4629,38,31.0176,38c3.4551,0,6.6621-1.3379,8.37-3.4917a2.8073,2.8073,0,0,0,.33-2.9868A2.652,2.652,0,0,0,37.3193,30Z"/>
</g>
</svg>